<mxfile host="Electron" agent="Mozilla/5.0 (Macintosh; Intel Mac OS X 10_15_7) AppleWebKit/537.36 (KHTML, like Gecko) draw.io/24.7.17 Chrome/128.0.6613.36 Electron/32.0.1 Safari/537.36" version="24.7.17">
  <diagram name="Pagina-1" id="DOX0yj7Ld596dEBFqLxi">
    <mxGraphModel dx="2389" dy="873" grid="1" gridSize="10" guides="1" tooltips="1" connect="1" arrows="1" fold="1" page="1" pageScale="1" pageWidth="827" pageHeight="1169" math="0" shadow="0">
      <root>
        <mxCell id="0" />
        <mxCell id="1" parent="0" />
        <mxCell id="o9Z06vjoExIroHWnmu0s-50" value="" style="rounded=1;whiteSpace=wrap;html=1;" parent="1" vertex="1">
          <mxGeometry x="1160" y="580" width="640" height="100" as="geometry" />
        </mxCell>
        <mxCell id="o9Z06vjoExIroHWnmu0s-10" value="" style="rounded=1;whiteSpace=wrap;html=1;" parent="1" vertex="1">
          <mxGeometry x="480" y="860" width="640" height="100" as="geometry" />
        </mxCell>
        <mxCell id="o9Z06vjoExIroHWnmu0s-7" value="" style="rounded=1;whiteSpace=wrap;html=1;" parent="1" vertex="1">
          <mxGeometry x="480" y="720" width="640" height="100" as="geometry" />
        </mxCell>
        <mxCell id="Y2b7fYX2coD33l4ZnaOt-3" value="" style="rounded=1;whiteSpace=wrap;html=1;dashed=1;" parent="1" vertex="1">
          <mxGeometry y="40" width="800" height="160" as="geometry" />
        </mxCell>
        <mxCell id="Y2b7fYX2coD33l4ZnaOt-9" style="edgeStyle=orthogonalEdgeStyle;rounded=0;orthogonalLoop=1;jettySize=auto;html=1;exitX=0.5;exitY=1;exitDx=0;exitDy=0;entryX=0.5;entryY=0;entryDx=0;entryDy=0;" parent="1" source="Y2b7fYX2coD33l4ZnaOt-1" target="Y2b7fYX2coD33l4ZnaOt-6" edge="1">
          <mxGeometry relative="1" as="geometry" />
        </mxCell>
        <mxCell id="Y2b7fYX2coD33l4ZnaOt-1" value="ProductsController" style="rounded=1;whiteSpace=wrap;html=1;" parent="1" vertex="1">
          <mxGeometry x="100" y="80" width="120" height="60" as="geometry" />
        </mxCell>
        <mxCell id="Y2b7fYX2coD33l4ZnaOt-10" style="edgeStyle=orthogonalEdgeStyle;rounded=0;orthogonalLoop=1;jettySize=auto;html=1;exitX=0.5;exitY=1;exitDx=0;exitDy=0;entryX=0.5;entryY=0;entryDx=0;entryDy=0;" parent="1" source="Y2b7fYX2coD33l4ZnaOt-2" target="Y2b7fYX2coD33l4ZnaOt-7" edge="1">
          <mxGeometry relative="1" as="geometry" />
        </mxCell>
        <mxCell id="Y2b7fYX2coD33l4ZnaOt-2" value="CustomersController" style="rounded=1;whiteSpace=wrap;html=1;" parent="1" vertex="1">
          <mxGeometry x="450" y="80" width="120" height="60" as="geometry" />
        </mxCell>
        <mxCell id="Y2b7fYX2coD33l4ZnaOt-5" value="API" style="rounded=0;whiteSpace=wrap;html=1;" parent="1" vertex="1">
          <mxGeometry x="-50" y="20" width="120" height="60" as="geometry" />
        </mxCell>
        <mxCell id="Y2b7fYX2coD33l4ZnaOt-6" value="ProductsRepository" style="rounded=1;whiteSpace=wrap;html=1;" parent="1" vertex="1">
          <mxGeometry x="100" y="310" width="120" height="60" as="geometry" />
        </mxCell>
        <mxCell id="Y2b7fYX2coD33l4ZnaOt-7" value="CustomersRepository" style="rounded=1;whiteSpace=wrap;html=1;" parent="1" vertex="1">
          <mxGeometry x="450" y="310" width="120" height="60" as="geometry" />
        </mxCell>
        <mxCell id="Y2b7fYX2coD33l4ZnaOt-11" value="Contracts" style="rounded=1;whiteSpace=wrap;html=1;" parent="1" vertex="1">
          <mxGeometry x="870" y="100" width="120" height="60" as="geometry" />
        </mxCell>
        <mxCell id="Y2b7fYX2coD33l4ZnaOt-20" style="edgeStyle=orthogonalEdgeStyle;rounded=0;orthogonalLoop=1;jettySize=auto;html=1;exitX=0.5;exitY=1;exitDx=0;exitDy=0;entryX=0.5;entryY=0;entryDx=0;entryDy=0;" parent="1" source="Y2b7fYX2coD33l4ZnaOt-14" target="Y2b7fYX2coD33l4ZnaOt-19" edge="1">
          <mxGeometry relative="1" as="geometry" />
        </mxCell>
        <mxCell id="Y2b7fYX2coD33l4ZnaOt-14" value="OrdersController" style="rounded=1;whiteSpace=wrap;html=1;" parent="1" vertex="1">
          <mxGeometry x="270" y="80" width="120" height="60" as="geometry" />
        </mxCell>
        <mxCell id="Y2b7fYX2coD33l4ZnaOt-15" value="OrdersRepository" style="rounded=1;whiteSpace=wrap;html=1;" parent="1" vertex="1">
          <mxGeometry x="270" y="310" width="120" height="60" as="geometry" />
        </mxCell>
        <mxCell id="Y2b7fYX2coD33l4ZnaOt-21" style="edgeStyle=orthogonalEdgeStyle;rounded=0;orthogonalLoop=1;jettySize=auto;html=1;exitX=0.5;exitY=1;exitDx=0;exitDy=0;entryX=0.5;entryY=0;entryDx=0;entryDy=0;" parent="1" source="Y2b7fYX2coD33l4ZnaOt-19" target="Y2b7fYX2coD33l4ZnaOt-15" edge="1">
          <mxGeometry relative="1" as="geometry" />
        </mxCell>
        <mxCell id="Y2b7fYX2coD33l4ZnaOt-22" style="edgeStyle=orthogonalEdgeStyle;rounded=0;orthogonalLoop=1;jettySize=auto;html=1;exitX=0;exitY=0.5;exitDx=0;exitDy=0;entryX=0.75;entryY=0;entryDx=0;entryDy=0;" parent="1" source="Y2b7fYX2coD33l4ZnaOt-19" target="Y2b7fYX2coD33l4ZnaOt-6" edge="1">
          <mxGeometry relative="1" as="geometry" />
        </mxCell>
        <mxCell id="Y2b7fYX2coD33l4ZnaOt-23" style="edgeStyle=orthogonalEdgeStyle;rounded=0;orthogonalLoop=1;jettySize=auto;html=1;exitX=1;exitY=0.5;exitDx=0;exitDy=0;entryX=0;entryY=0;entryDx=0;entryDy=0;" parent="1" source="Y2b7fYX2coD33l4ZnaOt-19" target="Y2b7fYX2coD33l4ZnaOt-7" edge="1">
          <mxGeometry relative="1" as="geometry" />
        </mxCell>
        <mxCell id="Y2b7fYX2coD33l4ZnaOt-19" value="OrdersService" style="rounded=1;whiteSpace=wrap;html=1;" parent="1" vertex="1">
          <mxGeometry x="270" y="220" width="120" height="60" as="geometry" />
        </mxCell>
        <mxCell id="Y2b7fYX2coD33l4ZnaOt-13" value="" style="endArrow=classic;html=1;rounded=0;exitX=0;exitY=0.5;exitDx=0;exitDy=0;" parent="1" source="Y2b7fYX2coD33l4ZnaOt-11" edge="1">
          <mxGeometry width="50" height="50" relative="1" as="geometry">
            <mxPoint x="810" y="130" as="sourcePoint" />
            <mxPoint x="310" y="10" as="targetPoint" />
            <Array as="points">
              <mxPoint x="370" y="130" />
              <mxPoint x="370" y="230" />
              <mxPoint x="340" y="230" />
              <mxPoint x="310" y="230" />
            </Array>
          </mxGeometry>
        </mxCell>
        <mxCell id="Y2b7fYX2coD33l4ZnaOt-24" value="Model" style="rounded=1;whiteSpace=wrap;html=1;" parent="1" vertex="1">
          <mxGeometry x="870" y="350" width="120" height="60" as="geometry" />
        </mxCell>
        <mxCell id="Y2b7fYX2coD33l4ZnaOt-25" value="" style="endArrow=classic;html=1;rounded=0;exitX=0;exitY=0.5;exitDx=0;exitDy=0;" parent="1" source="Y2b7fYX2coD33l4ZnaOt-24" edge="1">
          <mxGeometry width="50" height="50" relative="1" as="geometry">
            <mxPoint x="610" y="370" as="sourcePoint" />
            <mxPoint x="290" y="380" as="targetPoint" />
            <Array as="points">
              <mxPoint x="370" y="380" />
              <mxPoint x="370" y="270" />
              <mxPoint x="290" y="270" />
            </Array>
          </mxGeometry>
        </mxCell>
        <mxCell id="o9Z06vjoExIroHWnmu0s-14" style="edgeStyle=orthogonalEdgeStyle;rounded=0;orthogonalLoop=1;jettySize=auto;html=1;exitX=0.5;exitY=1;exitDx=0;exitDy=0;entryX=0.5;entryY=0;entryDx=0;entryDy=0;" parent="1" source="o9Z06vjoExIroHWnmu0s-3" target="o9Z06vjoExIroHWnmu0s-11" edge="1">
          <mxGeometry relative="1" as="geometry" />
        </mxCell>
        <mxCell id="o9Z06vjoExIroHWnmu0s-3" value="Api Layer" style="rounded=1;whiteSpace=wrap;html=1;" parent="1" vertex="1">
          <mxGeometry x="480" y="720" width="120" height="100" as="geometry" />
        </mxCell>
        <mxCell id="o9Z06vjoExIroHWnmu0s-15" style="edgeStyle=orthogonalEdgeStyle;rounded=0;orthogonalLoop=1;jettySize=auto;html=1;exitX=0.5;exitY=1;exitDx=0;exitDy=0;entryX=0.5;entryY=0;entryDx=0;entryDy=0;" parent="1" source="o9Z06vjoExIroHWnmu0s-8" target="o9Z06vjoExIroHWnmu0s-12" edge="1">
          <mxGeometry relative="1" as="geometry" />
        </mxCell>
        <mxCell id="o9Z06vjoExIroHWnmu0s-8" value="ProductsController" style="rounded=1;whiteSpace=wrap;html=1;" parent="1" vertex="1">
          <mxGeometry x="640" y="740" width="120" height="60" as="geometry" />
        </mxCell>
        <mxCell id="o9Z06vjoExIroHWnmu0s-16" style="edgeStyle=orthogonalEdgeStyle;rounded=0;orthogonalLoop=1;jettySize=auto;html=1;exitX=0.5;exitY=1;exitDx=0;exitDy=0;entryX=0.5;entryY=0;entryDx=0;entryDy=0;" parent="1" source="o9Z06vjoExIroHWnmu0s-9" target="o9Z06vjoExIroHWnmu0s-13" edge="1">
          <mxGeometry relative="1" as="geometry" />
        </mxCell>
        <mxCell id="o9Z06vjoExIroHWnmu0s-9" value="CustomersController" style="rounded=1;whiteSpace=wrap;html=1;" parent="1" vertex="1">
          <mxGeometry x="800" y="740" width="120" height="60" as="geometry" />
        </mxCell>
        <mxCell id="o9Z06vjoExIroHWnmu0s-11" value="Data Layer" style="rounded=1;whiteSpace=wrap;html=1;" parent="1" vertex="1">
          <mxGeometry x="480" y="860" width="120" height="100" as="geometry" />
        </mxCell>
        <mxCell id="o9Z06vjoExIroHWnmu0s-12" value="ProductsRepo" style="rounded=1;whiteSpace=wrap;html=1;" parent="1" vertex="1">
          <mxGeometry x="640" y="880" width="120" height="60" as="geometry" />
        </mxCell>
        <mxCell id="o9Z06vjoExIroHWnmu0s-13" value="CustomerRepo" style="rounded=1;whiteSpace=wrap;html=1;" parent="1" vertex="1">
          <mxGeometry x="800" y="880" width="120" height="60" as="geometry" />
        </mxCell>
        <mxCell id="o9Z06vjoExIroHWnmu0s-17" value="" style="rounded=1;whiteSpace=wrap;html=1;" parent="1" vertex="1">
          <mxGeometry x="480" y="580" width="640" height="100" as="geometry" />
        </mxCell>
        <mxCell id="o9Z06vjoExIroHWnmu0s-18" value="" style="rounded=1;whiteSpace=wrap;html=1;" parent="1" vertex="1">
          <mxGeometry x="480" y="440" width="640" height="100" as="geometry" />
        </mxCell>
        <mxCell id="o9Z06vjoExIroHWnmu0s-19" style="edgeStyle=orthogonalEdgeStyle;rounded=0;orthogonalLoop=1;jettySize=auto;html=1;exitX=0.5;exitY=1;exitDx=0;exitDy=0;entryX=0.5;entryY=0;entryDx=0;entryDy=0;" parent="1" source="o9Z06vjoExIroHWnmu0s-20" target="o9Z06vjoExIroHWnmu0s-25" edge="1">
          <mxGeometry relative="1" as="geometry" />
        </mxCell>
        <mxCell id="o9Z06vjoExIroHWnmu0s-20" value="Api Layer" style="rounded=1;whiteSpace=wrap;html=1;" parent="1" vertex="1">
          <mxGeometry x="480" y="440" width="120" height="100" as="geometry" />
        </mxCell>
        <mxCell id="o9Z06vjoExIroHWnmu0s-21" style="edgeStyle=orthogonalEdgeStyle;rounded=0;orthogonalLoop=1;jettySize=auto;html=1;exitX=0.5;exitY=1;exitDx=0;exitDy=0;entryX=0.5;entryY=0;entryDx=0;entryDy=0;" parent="1" source="o9Z06vjoExIroHWnmu0s-22" target="o9Z06vjoExIroHWnmu0s-26" edge="1">
          <mxGeometry relative="1" as="geometry" />
        </mxCell>
        <mxCell id="o9Z06vjoExIroHWnmu0s-22" value="ProductsController" style="rounded=1;whiteSpace=wrap;html=1;" parent="1" vertex="1">
          <mxGeometry x="640" y="460" width="120" height="60" as="geometry" />
        </mxCell>
        <mxCell id="o9Z06vjoExIroHWnmu0s-23" style="edgeStyle=orthogonalEdgeStyle;rounded=0;orthogonalLoop=1;jettySize=auto;html=1;exitX=0.5;exitY=1;exitDx=0;exitDy=0;entryX=0.5;entryY=0;entryDx=0;entryDy=0;" parent="1" source="o9Z06vjoExIroHWnmu0s-24" target="o9Z06vjoExIroHWnmu0s-27" edge="1">
          <mxGeometry relative="1" as="geometry" />
        </mxCell>
        <mxCell id="o9Z06vjoExIroHWnmu0s-24" value="CustomersController" style="rounded=1;whiteSpace=wrap;html=1;" parent="1" vertex="1">
          <mxGeometry x="800" y="460" width="120" height="60" as="geometry" />
        </mxCell>
        <mxCell id="o9Z06vjoExIroHWnmu0s-25" value="Data Layer" style="rounded=1;whiteSpace=wrap;html=1;" parent="1" vertex="1">
          <mxGeometry x="480" y="580" width="120" height="100" as="geometry" />
        </mxCell>
        <mxCell id="o9Z06vjoExIroHWnmu0s-26" value="ProductsRepo" style="rounded=1;whiteSpace=wrap;html=1;" parent="1" vertex="1">
          <mxGeometry x="640" y="600" width="120" height="60" as="geometry" />
        </mxCell>
        <mxCell id="o9Z06vjoExIroHWnmu0s-27" value="CustomerRepo" style="rounded=1;whiteSpace=wrap;html=1;" parent="1" vertex="1">
          <mxGeometry x="800" y="600" width="120" height="60" as="geometry" />
        </mxCell>
        <mxCell id="o9Z06vjoExIroHWnmu0s-31" style="edgeStyle=orthogonalEdgeStyle;rounded=0;orthogonalLoop=1;jettySize=auto;html=1;exitX=0.75;exitY=1;exitDx=0;exitDy=0;entryX=0.5;entryY=0;entryDx=0;entryDy=0;" parent="1" source="o9Z06vjoExIroHWnmu0s-28" target="o9Z06vjoExIroHWnmu0s-29" edge="1">
          <mxGeometry relative="1" as="geometry" />
        </mxCell>
        <mxCell id="o9Z06vjoExIroHWnmu0s-32" style="edgeStyle=orthogonalEdgeStyle;rounded=0;orthogonalLoop=1;jettySize=auto;html=1;exitX=0.5;exitY=1;exitDx=0;exitDy=0;entryX=0.75;entryY=0;entryDx=0;entryDy=0;" parent="1" source="o9Z06vjoExIroHWnmu0s-28" target="o9Z06vjoExIroHWnmu0s-27" edge="1">
          <mxGeometry relative="1" as="geometry" />
        </mxCell>
        <mxCell id="o9Z06vjoExIroHWnmu0s-33" style="edgeStyle=orthogonalEdgeStyle;rounded=0;orthogonalLoop=1;jettySize=auto;html=1;exitX=0.25;exitY=1;exitDx=0;exitDy=0;entryX=0.75;entryY=0;entryDx=0;entryDy=0;" parent="1" source="o9Z06vjoExIroHWnmu0s-28" target="o9Z06vjoExIroHWnmu0s-26" edge="1">
          <mxGeometry relative="1" as="geometry">
            <Array as="points">
              <mxPoint x="990" y="550" />
              <mxPoint x="730" y="550" />
            </Array>
          </mxGeometry>
        </mxCell>
        <mxCell id="o9Z06vjoExIroHWnmu0s-28" value="OrdersController" style="rounded=1;whiteSpace=wrap;html=1;" parent="1" vertex="1">
          <mxGeometry x="960" y="460" width="120" height="60" as="geometry" />
        </mxCell>
        <mxCell id="o9Z06vjoExIroHWnmu0s-29" value="OrdersRepo" style="rounded=1;whiteSpace=wrap;html=1;" parent="1" vertex="1">
          <mxGeometry x="960" y="600" width="120" height="60" as="geometry" />
        </mxCell>
        <mxCell id="o9Z06vjoExIroHWnmu0s-34" value="" style="rounded=1;whiteSpace=wrap;html=1;" parent="1" vertex="1">
          <mxGeometry x="1160" y="720" width="640" height="100" as="geometry" />
        </mxCell>
        <mxCell id="o9Z06vjoExIroHWnmu0s-35" value="" style="rounded=1;whiteSpace=wrap;html=1;" parent="1" vertex="1">
          <mxGeometry x="1160" y="440" width="640" height="100" as="geometry" />
        </mxCell>
        <mxCell id="o9Z06vjoExIroHWnmu0s-37" value="Api Layer" style="rounded=1;whiteSpace=wrap;html=1;" parent="1" vertex="1">
          <mxGeometry x="1160" y="440" width="120" height="100" as="geometry" />
        </mxCell>
        <mxCell id="o9Z06vjoExIroHWnmu0s-60" style="edgeStyle=orthogonalEdgeStyle;rounded=0;orthogonalLoop=1;jettySize=auto;html=1;exitX=0.5;exitY=1;exitDx=0;exitDy=0;entryX=0.5;entryY=0;entryDx=0;entryDy=0;dashed=1;" parent="1" source="o9Z06vjoExIroHWnmu0s-39" target="o9Z06vjoExIroHWnmu0s-58" edge="1">
          <mxGeometry relative="1" as="geometry" />
        </mxCell>
        <mxCell id="o9Z06vjoExIroHWnmu0s-39" value="ProductsController" style="rounded=1;whiteSpace=wrap;html=1;" parent="1" vertex="1">
          <mxGeometry x="1320" y="460" width="120" height="60" as="geometry" />
        </mxCell>
        <mxCell id="o9Z06vjoExIroHWnmu0s-63" style="edgeStyle=orthogonalEdgeStyle;rounded=0;orthogonalLoop=1;jettySize=auto;html=1;exitX=0.5;exitY=1;exitDx=0;exitDy=0;entryX=0.5;entryY=0;entryDx=0;entryDy=0;dashed=1;" parent="1" source="o9Z06vjoExIroHWnmu0s-41" target="o9Z06vjoExIroHWnmu0s-59" edge="1">
          <mxGeometry relative="1" as="geometry" />
        </mxCell>
        <mxCell id="o9Z06vjoExIroHWnmu0s-41" value="CustomersController" style="rounded=1;whiteSpace=wrap;html=1;" parent="1" vertex="1">
          <mxGeometry x="1480" y="460" width="120" height="60" as="geometry" />
        </mxCell>
        <mxCell id="o9Z06vjoExIroHWnmu0s-42" value="Data Layer" style="rounded=1;whiteSpace=wrap;html=1;" parent="1" vertex="1">
          <mxGeometry x="1160" y="720" width="120" height="100" as="geometry" />
        </mxCell>
        <mxCell id="o9Z06vjoExIroHWnmu0s-43" value="ProductsRepo" style="rounded=1;whiteSpace=wrap;html=1;" parent="1" vertex="1">
          <mxGeometry x="1320" y="740" width="120" height="60" as="geometry" />
        </mxCell>
        <mxCell id="o9Z06vjoExIroHWnmu0s-44" value="CustomerRepo" style="rounded=1;whiteSpace=wrap;html=1;" parent="1" vertex="1">
          <mxGeometry x="1480" y="740" width="120" height="60" as="geometry" />
        </mxCell>
        <mxCell id="o9Z06vjoExIroHWnmu0s-53" style="edgeStyle=orthogonalEdgeStyle;rounded=0;orthogonalLoop=1;jettySize=auto;html=1;exitX=0.5;exitY=1;exitDx=0;exitDy=0;entryX=0.5;entryY=0;entryDx=0;entryDy=0;" parent="1" source="o9Z06vjoExIroHWnmu0s-48" target="o9Z06vjoExIroHWnmu0s-52" edge="1">
          <mxGeometry relative="1" as="geometry" />
        </mxCell>
        <mxCell id="o9Z06vjoExIroHWnmu0s-48" value="OrdersController" style="rounded=1;whiteSpace=wrap;html=1;" parent="1" vertex="1">
          <mxGeometry x="1640" y="460" width="120" height="60" as="geometry" />
        </mxCell>
        <mxCell id="o9Z06vjoExIroHWnmu0s-49" value="OrdersRepo" style="rounded=1;whiteSpace=wrap;html=1;" parent="1" vertex="1">
          <mxGeometry x="1640" y="740" width="120" height="60" as="geometry" />
        </mxCell>
        <mxCell id="o9Z06vjoExIroHWnmu0s-51" value="Service Layer" style="rounded=1;whiteSpace=wrap;html=1;" parent="1" vertex="1">
          <mxGeometry x="1160" y="580" width="120" height="100" as="geometry" />
        </mxCell>
        <mxCell id="o9Z06vjoExIroHWnmu0s-55" style="edgeStyle=orthogonalEdgeStyle;rounded=0;orthogonalLoop=1;jettySize=auto;html=1;exitX=0.75;exitY=1;exitDx=0;exitDy=0;entryX=0.75;entryY=0;entryDx=0;entryDy=0;" parent="1" source="o9Z06vjoExIroHWnmu0s-52" target="o9Z06vjoExIroHWnmu0s-49" edge="1">
          <mxGeometry relative="1" as="geometry" />
        </mxCell>
        <mxCell id="o9Z06vjoExIroHWnmu0s-61" style="edgeStyle=orthogonalEdgeStyle;rounded=0;orthogonalLoop=1;jettySize=auto;html=1;exitX=0.25;exitY=1;exitDx=0;exitDy=0;entryX=0.75;entryY=0;entryDx=0;entryDy=0;" parent="1" source="o9Z06vjoExIroHWnmu0s-52" target="o9Z06vjoExIroHWnmu0s-43" edge="1">
          <mxGeometry relative="1" as="geometry">
            <Array as="points">
              <mxPoint x="1670" y="690" />
              <mxPoint x="1410" y="690" />
            </Array>
          </mxGeometry>
        </mxCell>
        <mxCell id="o9Z06vjoExIroHWnmu0s-64" style="edgeStyle=orthogonalEdgeStyle;rounded=0;orthogonalLoop=1;jettySize=auto;html=1;exitX=0.5;exitY=1;exitDx=0;exitDy=0;entryX=0.75;entryY=0;entryDx=0;entryDy=0;" parent="1" source="o9Z06vjoExIroHWnmu0s-52" target="o9Z06vjoExIroHWnmu0s-44" edge="1">
          <mxGeometry relative="1" as="geometry" />
        </mxCell>
        <mxCell id="o9Z06vjoExIroHWnmu0s-52" value="OrderService" style="rounded=1;whiteSpace=wrap;html=1;" parent="1" vertex="1">
          <mxGeometry x="1640" y="600" width="120" height="60" as="geometry" />
        </mxCell>
        <mxCell id="o9Z06vjoExIroHWnmu0s-62" style="edgeStyle=orthogonalEdgeStyle;rounded=0;orthogonalLoop=1;jettySize=auto;html=1;exitX=0.5;exitY=1;exitDx=0;exitDy=0;entryX=0.5;entryY=0;entryDx=0;entryDy=0;dashed=1;" parent="1" source="o9Z06vjoExIroHWnmu0s-58" target="o9Z06vjoExIroHWnmu0s-43" edge="1">
          <mxGeometry relative="1" as="geometry" />
        </mxCell>
        <mxCell id="o9Z06vjoExIroHWnmu0s-58" value="ProductService" style="rounded=1;whiteSpace=wrap;html=1;dashed=1;" parent="1" vertex="1">
          <mxGeometry x="1320" y="600" width="120" height="60" as="geometry" />
        </mxCell>
        <mxCell id="o9Z06vjoExIroHWnmu0s-65" style="edgeStyle=orthogonalEdgeStyle;rounded=0;orthogonalLoop=1;jettySize=auto;html=1;exitX=0.5;exitY=1;exitDx=0;exitDy=0;entryX=0.5;entryY=0;entryDx=0;entryDy=0;dashed=1;" parent="1" source="o9Z06vjoExIroHWnmu0s-59" target="o9Z06vjoExIroHWnmu0s-44" edge="1">
          <mxGeometry relative="1" as="geometry" />
        </mxCell>
        <mxCell id="o9Z06vjoExIroHWnmu0s-59" value="CustomerService" style="rounded=1;whiteSpace=wrap;html=1;dashed=1;" parent="1" vertex="1">
          <mxGeometry x="1480" y="600" width="120" height="60" as="geometry" />
        </mxCell>
        <mxCell id="o9Z06vjoExIroHWnmu0s-66" value="" style="rounded=1;whiteSpace=wrap;html=1;" parent="1" vertex="1">
          <mxGeometry x="1841" y="580" width="640" height="100" as="geometry" />
        </mxCell>
        <mxCell id="o9Z06vjoExIroHWnmu0s-67" value="" style="rounded=1;whiteSpace=wrap;html=1;" parent="1" vertex="1">
          <mxGeometry x="1841" y="720" width="640" height="100" as="geometry" />
        </mxCell>
        <mxCell id="o9Z06vjoExIroHWnmu0s-68" value="" style="rounded=1;whiteSpace=wrap;html=1;" parent="1" vertex="1">
          <mxGeometry x="1841" y="440" width="639" height="100" as="geometry" />
        </mxCell>
        <mxCell id="o9Z06vjoExIroHWnmu0s-69" value="Api Layer" style="rounded=1;whiteSpace=wrap;html=1;" parent="1" vertex="1">
          <mxGeometry x="1841" y="440" width="120" height="100" as="geometry" />
        </mxCell>
        <mxCell id="o9Z06vjoExIroHWnmu0s-74" value="Data Layer" style="rounded=1;whiteSpace=wrap;html=1;" parent="1" vertex="1">
          <mxGeometry x="1841" y="720" width="120" height="100" as="geometry" />
        </mxCell>
        <mxCell id="o9Z06vjoExIroHWnmu0s-80" value="Service Layer" style="rounded=1;whiteSpace=wrap;html=1;" parent="1" vertex="1">
          <mxGeometry x="1841" y="580" width="120" height="100" as="geometry" />
        </mxCell>
        <mxCell id="JqUofrsmaJVS6CpR6B7L-3" value="" style="rounded=1;whiteSpace=wrap;html=1;fillColor=#d5e8d4;strokeColor=#82b366;opacity=50;" vertex="1" parent="1">
          <mxGeometry x="2000" y="360" width="360" height="260" as="geometry" />
        </mxCell>
        <mxCell id="o9Z06vjoExIroHWnmu0s-89" value="Api.Contracts" style="rounded=1;whiteSpace=wrap;html=1;" parent="1" vertex="1">
          <mxGeometry x="2040" y="460" width="160" height="60" as="geometry" />
        </mxCell>
        <mxCell id="JqUofrsmaJVS6CpR6B7L-1" value="" style="endArrow=classic;html=1;rounded=0;entryX=0.75;entryY=0;entryDx=0;entryDy=0;" edge="1" parent="1" target="o9Z06vjoExIroHWnmu0s-89">
          <mxGeometry width="50" height="50" relative="1" as="geometry">
            <mxPoint x="2160" y="400" as="sourcePoint" />
            <mxPoint x="1890" y="420" as="targetPoint" />
          </mxGeometry>
        </mxCell>
        <mxCell id="JqUofrsmaJVS6CpR6B7L-2" value="" style="rounded=1;whiteSpace=wrap;html=1;fillColor=#f8cecc;strokeColor=#b85450;" vertex="1" parent="1">
          <mxGeometry x="2240" y="640" width="120" height="140" as="geometry" />
        </mxCell>
        <mxCell id="o9Z06vjoExIroHWnmu0s-94" value="" style="endArrow=classic;html=1;rounded=0;exitX=1;exitY=0.5;exitDx=0;exitDy=0;" parent="1" source="o9Z06vjoExIroHWnmu0s-89" edge="1">
          <mxGeometry width="50" height="50" relative="1" as="geometry">
            <mxPoint x="2060" y="640" as="sourcePoint" />
            <mxPoint x="2320" y="400" as="targetPoint" />
            <Array as="points">
              <mxPoint x="2240" y="490" />
              <mxPoint x="2240" y="400" />
              <mxPoint x="2280" y="400" />
              <mxPoint x="2280" y="750" />
              <mxPoint x="2320" y="750" />
            </Array>
          </mxGeometry>
        </mxCell>
        <mxCell id="JqUofrsmaJVS6CpR6B7L-5" style="edgeStyle=orthogonalEdgeStyle;rounded=0;orthogonalLoop=1;jettySize=auto;html=1;exitX=0.5;exitY=1;exitDx=0;exitDy=0;" edge="1" parent="1">
          <mxGeometry relative="1" as="geometry">
            <mxPoint x="2195" y="610" as="sourcePoint" />
            <mxPoint x="2195" y="610" as="targetPoint" />
          </mxGeometry>
        </mxCell>
      </root>
    </mxGraphModel>
  </diagram>
</mxfile>
